<?xml version="1.0" standalone="no"?>
<!DOCTYPE svg PUBLIC "-//W3C//DTD SVG 20010904//EN"
 "http://www.w3.org/TR/2001/REC-SVG-20010904/DTD/svg10.dtd">
<svg version="1.0" xmlns="http://www.w3.org/2000/svg"
 width="556.000000pt" height="130.000000pt" viewBox="0 0 556.000000 130.000000"
 preserveAspectRatio="xMidYMid meet">

<g transform="translate(0.000000,130.000000) scale(0.100000,-0.100000)"
fill="#000000" stroke="none">
<path d="M3750 1289 c-113 -8 -265 -46 -352 -90 -193 -96 -290 -213 -292 -349
-1 -116 63 -205 252 -354 132 -104 170 -143 187 -192 25 -73 -21 -160 -110
-207 -32 -17 -62 -22 -145 -24 -94 -3 -110 -1 -150 20 -108 57 -119 174 -25
263 l35 32 -31 7 c-40 9 -133 -3 -181 -22 -43 -17 -85 -62 -95 -101 -8 -35 12
-107 42 -146 31 -41 98 -78 193 -106 66 -20 89 -22 210 -17 159 6 252 32 352
99 94 62 140 133 140 214 0 89 -60 180 -193 289 -195 162 -249 229 -249 305 0
61 23 103 95 173 76 73 176 123 278 138 93 15 144 6 181 -31 33 -34 38 -91 12
-146 -23 -48 -113 -127 -196 -173 -80 -44 -78 -50 27 -71 145 -30 338 66 403
201 49 102 4 222 -101 264 -55 22 -168 32 -287 24z"/>
<path d="M803 1276 c-318 -60 -537 -237 -536 -431 1 -112 70 -208 248 -346
215 -165 246 -243 143 -354 -49 -54 -114 -78 -213 -79 -92 0 -147 17 -190 59
-62 62 -56 154 15 225 l40 40 -26 6 c-42 11 -146 -5 -193 -29 -62 -30 -86 -67
-85 -125 2 -109 91 -191 251 -228 105 -25 305 -15 402 20 182 64 283 166 283
284 -1 97 -58 176 -225 315 -174 145 -217 200 -217 277 0 128 184 282 373 312
91 14 142 5 179 -32 33 -34 38 -91 12 -146 -23 -49 -119 -134 -200 -176 l-69
-37 30 -11 c17 -6 52 -16 78 -23 96 -22 240 29 329 115 87 85 111 182 65 269
-18 34 -36 51 -82 74 -56 28 -64 30 -199 32 -86 1 -169 -3 -213 -11z"/>
<path d="M1533 775 c-234 -52 -454 -301 -454 -512 0 -128 67 -188 211 -188 66
0 84 4 154 38 84 40 197 117 259 175 l37 36 0 -64 c0 -78 21 -125 70 -158 32
-22 43 -23 125 -20 82 3 97 7 160 42 38 21 87 52 109 70 26 21 57 36 86 40 93
14 203 83 271 169 35 44 50 93 34 109 -3 2 -40 -29 -83 -71 -75 -73 -164 -133
-177 -119 -4 4 7 27 25 53 64 93 84 152 85 247 0 83 -1 88 -29 117 -49 51
-125 63 -230 36 -137 -36 -240 -110 -345 -249 -190 -250 -453 -420 -541 -348
-27 22 -35 83 -18 142 l14 45 62 1 c79 2 139 18 227 62 91 45 189 141 205 202
15 56 -3 107 -46 132 -42 25 -136 31 -211 13z m107 -50 c18 -22 -2 -85 -42
-131 -42 -47 -143 -118 -212 -149 -31 -14 -59 -25 -61 -25 -11 0 45 99 90 158
52 69 114 124 166 146 43 19 44 19 59 1z m648 -35 c2 -32 -6 -69 -29 -131
l-32 -86 -41 4 c-36 4 -46 1 -74 -25 -36 -34 -42 -77 -17 -126 22 -43 20 -50
-39 -111 -46 -47 -60 -55 -90 -55 -76 0 -71 87 13 265 86 179 216 322 286 313
16 -2 21 -12 23 -48z"/>
<path d="M4375 779 c-206 -46 -419 -270 -480 -504 -23 -92 -20 -131 14 -166
54 -53 144 -36 273 51 32 22 59 40 60 40 2 0 2 -20 0 -44 -3 -39 -1 -46 23
-62 16 -10 44 -17 72 -16 54 0 143 56 247 153 36 34 66 59 66 56 0 -2 -11 -35
-25 -71 -14 -37 -25 -75 -25 -85 0 -29 33 -51 76 -51 73 1 111 40 165 171 30
73 42 89 150 194 110 107 149 134 149 101 0 -7 -22 -60 -49 -117 -27 -57 -61
-144 -76 -192 -25 -83 -26 -90 -10 -113 30 -47 100 -57 164 -24 98 49 391 326
391 368 0 62 -11 56 -159 -96 -80 -82 -157 -155 -170 -162 -23 -12 -24 -11
-18 21 3 19 37 102 75 185 116 249 130 305 86 348 -25 25 -83 19 -142 -15 -29
-16 -106 -81 -169 -142 -64 -62 -114 -105 -111 -97 3 8 27 65 53 127 26 62 45
118 42 126 -8 21 -80 31 -121 17 -40 -13 -70 -57 -156 -230 -43 -85 -69 -122
-138 -194 -116 -123 -166 -164 -170 -142 -5 22 5 46 84 217 75 162 83 189 59
189 -15 0 -14 4 4 34 26 41 27 78 4 98 -39 35 -149 47 -238 27z m113 -51 c18
-18 15 -30 -15 -67 -18 -21 -48 -39 -83 -51 l-55 -19 33 -12 c18 -6 31 -16 29
-23 -49 -116 -116 -248 -141 -274 -42 -45 -121 -94 -143 -90 -24 5 -19 43 18
138 71 179 203 356 294 396 38 17 48 17 63 2z"/>
</g>
</svg>
